HIERARCHY
ROOT Hips
{
	OFFSET 0.000000 0.000000 0.000000
	CHANNELS 6 Xposition Yposition Zposition Zrotation Yrotation Xrotation 
	JOINT LeftUpLeg_virtual
	{
		OFFSET 0.000000 0.000000 0.000000
		CHANNELS 3 Zrotation Yrotation Xrotation
		JOINT LeftUpLeg
		{
			OFFSET 8.479694 -4.795517 -0.379053
			CHANNELS 3 Zrotation Yrotation Xrotation
			JOINT LeftLeg
			{
				OFFSET 0.485052 -32.551468 0.112863
				CHANNELS 3 Zrotation Yrotation Xrotation
				JOINT LeftFoot
				{
					OFFSET 0.438033 -32.635670 -3.012641
					CHANNELS 3 Zrotation Yrotation Xrotation
					JOINT LeftToeBase
					{
						OFFSET 0.970169 -13.225353 11.864223
						CHANNELS 3 Zrotation Yrotation Xrotation
						End Site
						{
							OFFSET 0.000000 0.000000 0.000000
						}
					}
				}
			}
		}
	}
	JOINT RightUpLeg_virtual
	{
		OFFSET 0.000000 0.000000 0.000000
		CHANNELS 3 Zrotation Yrotation Xrotation
		JOINT RightUpLeg
		{
			OFFSET -8.479694 -4.795517 -0.379053
			CHANNELS 3 Zrotation Yrotation Xrotation
			JOINT RightLeg
			{
				OFFSET -0.484100 -32.551483 0.112903
				CHANNELS 3 Zrotation Yrotation Xrotation
				JOINT RightFoot
				{
					OFFSET -0.438985 -32.635651 -3.012681
					CHANNELS 3 Zrotation Yrotation Xrotation
					JOINT RightToeBase
					{
						OFFSET -0.970169 -13.225354 11.864223
						CHANNELS 3 Zrotation Yrotation Xrotation
						End Site
						{
							OFFSET 0.000000 0.000000 0.000000
						}
					}
				}
			}
		}
	}
	JOINT Spine_virtual
	{
		OFFSET 0.000000 0.000000 0.000000
		CHANNELS 3 Zrotation Yrotation Xrotation
		JOINT Spine
		{
			OFFSET 0.000000 7.722015 1.166203
			CHANNELS 3 Zrotation Yrotation Xrotation
			JOINT Spine1
			{
				OFFSET 0.000000 12.024086 0.248766
				CHANNELS 3 Zrotation Yrotation Xrotation
				JOINT Spine2
				{
					OFFSET -0.000000 11.503036 -0.491240
					CHANNELS 3 Zrotation Yrotation Xrotation
					JOINT Neck_virtual
					{
						OFFSET 0.000000 0.000000 0.000000
						CHANNELS 3 Zrotation Yrotation Xrotation
						JOINT Neck
						{
							OFFSET 0.000000 18.430687 -3.123054
							CHANNELS 3 Zrotation Yrotation Xrotation
							JOINT Head
							{
								OFFSET -0.000000 9.051071 1.034021
								CHANNELS 3 Zrotation Yrotation Xrotation
								End Site
								{
									OFFSET 0.000000 0.000000 0.000000
								}
							}
						}
					}
					JOINT LeftShoulder_virtual
					{
						OFFSET 0.000000 0.000000 0.000000
						CHANNELS 3 Zrotation Yrotation Xrotation
						JOINT LeftShoulder
						{
							OFFSET 6.197824 13.665230 -4.064723
							CHANNELS 3 Zrotation Yrotation Xrotation
							JOINT LeftArm
							{
								OFFSET 7.778132 -0.187073 -1.709282
								CHANNELS 3 Zrotation Yrotation Xrotation
								JOINT LeftForeArm
								{
									OFFSET 21.954697 0.000000 -2.041093
									CHANNELS 3 Zrotation Yrotation Xrotation
									JOINT LeftHand
									{
										OFFSET 22.992908 0.000000 -0.870901
										CHANNELS 3 Zrotation Yrotation Xrotation
										End Site
										{
											OFFSET 0.000000 0.000000 0.000000
										}
									}
								}
							}
						}
					}
					JOINT RightShoulder_virtual
					{
						OFFSET 0.000000 0.000000 0.000000
						CHANNELS 3 Zrotation Yrotation Xrotation
						JOINT RightShoulder
						{
							OFFSET -6.197824 13.665230 -4.064723
							CHANNELS 3 Zrotation Yrotation Xrotation
							JOINT RightArm
							{
								OFFSET -7.778132 -0.187073 -1.709282
								CHANNELS 3 Zrotation Yrotation Xrotation
								JOINT RightForeArm
								{
									OFFSET -21.954697 0.000000 -2.041093
									CHANNELS 3 Zrotation Yrotation Xrotation
									JOINT RightHand
									{
										OFFSET -22.992908 0.000000 -0.870901
										CHANNELS 3 Zrotation Yrotation Xrotation
										End Site
										{
											OFFSET 0.000000 0.000000 0.000000
										}
									}
								}
							}
						}
					}
				}
			}
		}
	}
}
MOTION
Frames: 8
Frame Time: 0.033333
-6.908052 58.478935 52.031872 179.884179 6.151658 -179.843239 5.428031 -6.202944 -8.552280 0.897991 5.206307 -81.650506 12.347461 -2.112853 117.636785 4.206845 -17.990418 -5.904982 0.000000 0.000000 0.000000 3.194989 -0.502696 -6.703729 2.906183 -3.766309 -81.690060 -2.454880 -1.662265 116.515951 -7.683922 15.381881 -13.261561 0.000000 0.000000 0.000000 4.703429 -1.018407 -10.328130 -2.588529 -0.653751 4.458496 -2.209678 0.693933 17.081507 0.027206 0.009888 -0.004526 -2.627912 0.849682 18.087680 3.009726 -3.346866 -9.364326 0.000000 0.000000 0.000000 -0.483620 1.436571 13.994372 -4.276122 -21.139150 7.237540 -16.932469 -39.721132 -1.572313 -1.605987 -41.084162 5.871211 0.000000 0.000000 0.000000 -4.558657 2.853607 13.535896 18.995369 20.180059 6.597086 28.760929 44.379373 5.428721 -8.779647 40.760568 -2.802192 0.000000 0.000000 0.000000 
-6.913039 58.490482 52.072540 179.858347 6.058398 -179.903358 5.217720 -6.186025 -8.439972 0.928845 5.173013 -81.756483 12.266978 -2.200552 117.566134 4.306444 -18.019200 -5.977796 0.000000 0.000000 0.000000 3.083257 -0.511801 -6.428513 3.007688 -3.697478 -81.958445 -2.393583 -1.651499 116.463277 -7.683250 15.281438 -13.100731 0.000000 0.000000 0.000000 4.559758 -0.989342 -10.158198 -2.632683 -0.596881 4.339693 -2.192047 0.726218 17.039818 0.016327 0.025911 -0.018082 -2.625244 0.847466 18.030033 3.108020 -3.196248 -9.698980 0.000000 0.000000 0.000000 -0.482097 1.507039 14.049471 -4.199564 -21.225168 7.229354 -16.624523 -39.901904 -1.482071 -1.767637 -40.990759 5.925861 0.000000 0.000000 0.000000 -4.523099 2.937391 13.537313 18.965128 20.249715 6.656331 28.081237 44.117947 5.113910 -8.635762 40.821005 -2.630902 0.000000 0.000000 0.000000 
-6.912093 58.466347 52.094498 179.833280 5.938693 -179.949762 5.194294 -6.316149 -8.277903 0.959006 5.231748 -81.871791 12.362202 -2.203713 117.568483 4.389866 -18.092766 -6.092889 0.000000 0.000000 0.000000 2.963371 -0.598220 -6.326799 3.103274 -3.621212 -82.082447 -2.356504 -1.618493 116.434740 -7.666646 15.154518 -13.059819 0.000000 0.000000 0.000000 4.468840 -0.998108 -10.021246 -2.640152 -0.554845 4.207507 -2.194094 0.717832 16.965591 0.010698 0.003127 0.015031 -2.574981 1.008667 17.932254 3.243381 -3.332922 -10.018847 0.000000 0.000000 0.000000 -0.473338 1.508397 14.003746 -4.280438 -21.208149 7.265542 -16.329627 -39.982145 -1.502165 -1.832209 -40.839747 5.841566 0.000000 0.000000 0.000000 -4.495195 2.910335 13.526376 18.817096 20.306188 6.412801 27.661281 43.904104 5.226931 -8.515915 40.992128 -2.481662 0.000000 0.000000 0.000000 
-6.906889 58.416439 52.078339 179.866243 5.839497 -179.966728 5.247513 -6.397652 -8.244348 0.808667 5.335920 -81.885724 12.305340 -2.271223 117.619792 4.522616 -18.088434 -6.330406 0.000000 0.000000 0.000000 2.899398 -0.700360 -6.116579 3.191478 -3.542413 -82.337022 -2.353951 -1.609448 116.503766 -7.567237 15.037799 -13.018682 0.000000 0.000000 0.000000 4.503698 -1.056109 -9.931038 -2.607575 -0.567738 4.065638 -2.166043 0.684863 16.918790 0.041585 -0.003427 0.029492 -2.619155 0.965864 17.871765 3.331249 -3.415669 -10.299991 0.000000 0.000000 0.000000 -0.523062 1.517360 13.969212 -4.464375 -21.103657 7.344443 -16.086736 -39.962252 -1.499136 -1.830991 -40.724439 5.699919 0.000000 0.000000 0.000000 -4.518797 2.854114 13.595387 18.763568 20.403436 6.409435 27.061640 43.935936 4.994414 -8.174220 41.228931 -2.169654 0.000000 0.000000 0.000000 
-6.931472 58.356174 52.055920 179.927660 5.759116 -179.941388 5.360199 -6.624557 -7.969196 0.480942 5.632045 -82.166629 12.102918 -2.325367 117.736028 4.798948 -17.913616 -6.693502 0.000000 0.000000 0.000000 2.846914 -0.803222 -5.859570 3.256669 -3.501793 -82.698127 -2.369228 -1.619102 116.604771 -7.371548 14.968947 -12.960726 0.000000 0.000000 0.000000 4.565598 -1.087116 -9.902675 -2.533606 -0.555805 3.903720 -2.125068 0.665276 16.859222 0.026421 0.000461 0.022310 -2.602148 0.892965 17.868378 3.372176 -3.406756 -10.578164 0.000000 0.000000 0.000000 -0.507769 1.498444 14.073631 -4.620907 -21.057637 7.318662 -15.801568 -40.127054 -1.758947 -2.018602 -40.621802 5.715020 0.000000 0.000000 0.000000 -4.481119 2.850270 13.602338 18.713448 20.289567 6.317608 26.785342 44.016099 5.039420 -7.952660 41.416734 -2.000398 0.000000 0.000000 0.000000 
-6.977241 58.287109 52.048790 179.858033 5.830516 -179.852937 5.369079 -6.667306 -7.830843 0.281102 5.913004 -82.412120 12.097713 -2.376061 117.796461 4.969439 -17.941256 -6.939931 0.000000 0.000000 0.000000 2.763484 -0.795901 -5.825727 3.248443 -3.485095 -83.008546 -2.391611 -1.620282 116.716759 -7.092128 14.961593 -12.806590 0.000000 0.000000 0.000000 4.565201 -1.121329 -9.935255 -2.511273 -0.532778 3.767766 -2.087931 0.651313 16.815950 0.039776 0.003425 -0.001947 -2.589038 0.815874 17.944498 3.385302 -3.389238 -10.769056 0.000000 0.000000 0.000000 -0.485125 1.503538 14.147173 -4.720307 -20.959945 7.354084 -15.562356 -40.251780 -1.930328 -2.006542 -40.607735 5.549707 0.000000 0.000000 0.000000 -4.457774 2.896537 13.649757 18.669728 20.362770 6.241362 26.540088 44.033874 4.957205 -7.743163 41.548703 -1.823135 0.000000 0.000000 0.000000 
-7.033400 58.222530 52.040039 179.951115 5.754189 -179.939694 5.468190 -6.665582 -7.530757 0.346838 5.738041 -82.451353 11.811673 -2.455865 117.444597 4.417587 -18.951338 -6.950278 0.000000 0.000000 0.000000 2.782067 -0.965178 -5.509414 3.253470 -3.502124 -83.377820 -2.438791 -1.656852 116.797997 -6.733234 14.970982 -12.647598 0.000000 0.000000 0.000000 4.669382 -1.241289 -9.895179 -2.449401 -0.555511 3.745919 -2.046194 0.605413 16.824231 0.015450 -0.011711 0.009698 -2.539191 0.868547 17.911862 3.374577 -3.538323 -10.911522 0.000000 0.000000 0.000000 -0.430797 1.496860 14.124166 -4.703476 -20.900249 7.317159 -15.383837 -40.362299 -2.100860 -2.042709 -40.617974 5.395034 0.000000 0.000000 0.000000 -4.392773 2.871455 13.622951 18.545784 20.392841 6.175165 26.354592 44.154922 4.774376 -7.554360 41.515604 -1.764329 0.000000 0.000000 0.000000 
-7.067166 58.161167 52.036613 179.930474 5.844497 -179.852022 5.550054 -6.633384 -7.391138 0.327887 5.795099 -82.646150 11.548168 -2.553920 117.310357 4.156963 -19.636114 -6.914722 0.000000 0.000000 0.000000 2.771687 -0.991508 -5.467438 3.197788 -3.466865 -83.726918 -2.478143 -1.654182 116.922607 -6.347212 14.912916 -12.361676 0.000000 0.000000 0.000000 4.697192 -1.324416 -9.965865 -2.417944 -0.527072 3.698165 -2.003694 0.604390 16.829251 0.020123 0.017427 0.000092 -2.550518 0.674449 17.992675 3.332581 -3.635264 -10.947355 0.000000 0.000000 0.000000 -0.411251 1.462657 14.166221 -4.608755 -20.871407 7.271618 -15.246024 -40.458779 -2.274215 -2.019796 -40.673725 5.239108 0.000000 0.000000 0.000000 -4.354769 2.888455 13.670354 18.504839 20.438533 6.116991 26.134274 44.162248 4.489742 -7.310588 41.440834 -1.619049 0.000000 0.000000 0.000000 
